<svg xmlns="http://www.w3.org/2000/svg" viewBox="0 0 64 64">
  <defs>
    <linearGradient id="grad" x1="0%" y1="0%" x2="100%" y2="100%">
      <stop offset="0%" style="stop-color:#10b981;stop-opacity:1" />
      <stop offset="100%" style="stop-color:#2563eb;stop-opacity:1" />
    </linearGradient>
  </defs>
  <rect width="64" height="64" rx="12" fill="url(#grad)"/>
  <path d="M46 28c0-1.1-.4-2.1-1-3-1.6-2.6-4.5-4-7.5-4-1.3 0-2.6.3-3.8.9C32.6 18.8 29.5 17 26 17c-5 0-9 4-9 9 0 .3 0 .6.1.9-3.4.5-6.1 3.4-6.1 7.1 0 4 3 7 7 7h26c3.9 0 7-3.1 7-7 0-3.5-2.6-6.4-6-6.9-.1-.4 0-.7 0-1.1z" fill="white"/>
</svg>
